# xmcd
#
# Track frame offsets:
#	150
#	13593
#	23920
#	38223
#	56534
#	72741
#	84450
#	91092
#	98984
#	110636
#	123395
#	133975
#
# Disc length: 1934 seconds
#
# Revision: 1
# Processed by: cddbd v1.5.2PL0 Copyright (c) Steve Scherf et al.
# Submitted via: audiograbber 1.83.01
#
DISCID=a4078c0c
DTITLE=Kenny Rogers - Christmas In America
DYEAR=1989
DGENRE=Country
TTITLE0=Christmas In America
TTITLE1=Winter Wonderland
TTITLE2=I'll Be Home For Christmas
TTITLE3=Silver Bells
TTITLE4=Have Yourself A Merry Little Christmas
TTITLE5=Joy To The World
TTITLE6=Away In A Manger
TTITLE7=O Little Town Of Bethlemen
TTITLE8=God Rest Ye Merry Gentlemen
TTITLE9=The First Noel
TTITLE10=What Child Is This
TTITLE11=Silent Night
EXTD=
EXTT0=
EXTT1=
EXTT2=
EXTT3=
EXTT4=
EXTT5=
EXTT6=
EXTT7=
EXTT8=
EXTT9=
EXTT10=
EXTT11=
PLAYORDER=
